<svg id="Layer_1" data-name="Layer 1" xmlns="http://www.w3.org/2000/svg" viewBox="0 0 256 256"><defs><style>.cls-1{fill:#5c67b0;}.cls-2{fill:#c6d9f0;}</style></defs><title>icon</title><rect class="cls-1" x="128.38" width="127.62" height="256"/><rect class="cls-2" width="128.38" height="256"/><circle class="cls-1" cx="128.38" cy="129.12" r="71.52"/><path class="cls-2" d="M132.36,49.85V0h-8V49.85a79.36,79.36,0,0,0,0,158.54V256h8V208.39a79.36,79.36,0,0,0,0-158.54Zm-4,150.79a71.52,71.52,0,1,1,71.53-71.52A71.6,71.6,0,0,1,128.38,200.64Z"/><path class="cls-2" d="M111.47,106a4,4,0,0,0-5.62,0l-22.31,22.3,22.31,22.31a4,4,0,0,0,5.62,0,4,4,0,0,0,0-5.62L94.78,128.31l16.69-16.68A4,4,0,0,0,111.47,106Z"/><path class="cls-2" d="M145.3,106a4,4,0,0,0,0,5.62L162,128.31,145.3,145a4,4,0,0,0,0,5.62,4,4,0,0,0,5.62,0l22.31-22.31L150.92,106A4,4,0,0,0,145.3,106Z"/></svg>